<svg aria-hidden="true" style="position: absolute; width: 0; height: 0; overflow: hidden;" version="1.1" xmlns="http://www.w3.org/2000/svg" xmlns:xlink="http://www.w3.org/1999/xlink">
<defs>
<symbol id="icon-cart" viewBox="0 0 32 32">
<path d="M24.251 23.778c-2.048 0-3.736 1.653-3.736 3.736 0 2.048 1.653 3.736 3.736 3.736 2.048 0 3.736-1.653 3.736-3.736-0.036-2.048-1.689-3.736-3.736-3.736z"></path>
<path d="M30.826 5.958c-0.072 0-0.18-0.036-0.287-0.036h-22.634l-0.359-2.407c-0.216-1.581-1.581-2.766-3.198-2.766h-2.91c-0.79 0-1.437 0.647-1.437 1.437s0.647 1.437 1.437 1.437h2.91c0.18 0 0.323 0.144 0.359 0.323l2.228 15.161c0.287 1.904 1.94 3.341 3.88 3.341h14.946c1.868 0 3.485-1.329 3.88-3.162l2.335-11.676c0.144-0.754-0.359-1.509-1.15-1.653z"></path>
<path d="M15.090 27.335c-0.072-1.976-1.725-3.557-3.701-3.557-2.084 0.108-3.665 1.832-3.593 3.88 0.072 1.976 1.689 3.557 3.665 3.557h0.072c2.048-0.108 3.665-1.832 3.557-3.88z"></path>
</symbol>
<symbol id="icon-call" viewBox="0 0 32 32">
<path d="M29.432 21.004c-1.959 0-3.883-0.306-5.706-0.909-0.893-0.305-1.991-0.025-2.537 0.535l-3.598 2.716c-4.173-2.227-6.743-4.797-8.94-8.938l2.636-3.504c0.685-0.684 0.931-1.683 0.636-2.621-0.605-1.832-0.912-3.755-0.912-5.715 0-1.416-1.152-2.568-2.568-2.568h-5.877c-1.416 0-2.568 1.152-2.568 2.568 0 16.229 13.203 29.432 29.432 29.432 1.416 0 2.568-1.152 2.568-2.568v-5.86c-0-1.416-1.152-2.568-2.568-2.568z"></path>
</symbol>
<symbol id="icon-calendar" viewBox="0 0 32 32">
<path d="M28 4h-1.333v-2.667c0-0.736-0.597-1.333-1.334-1.333h-1.333c-0.736 0-1.333 0.597-1.333 1.333v2.667h-13.334v-2.667c0-0.736-0.597-1.333-1.333-1.333h-1.333c-0.736 0-1.333 0.597-1.333 1.333v2.667h-1.333c-2.205 0-4 1.795-4 4v20c0 2.205 1.795 4 4 4h24c2.205 0 4-1.795 4-4v-20c0-2.205-1.795-4-4-4zM29.333 28c0 0.735-0.599 1.333-1.333 1.333h-24c-0.735 0-1.333-0.599-1.333-1.333v-14.613h26.666z"></path>
</symbol>
<symbol id="icon-mail" viewBox="0 0 32 32">
<path d="M31.718 6.358l-9.705 9.642 9.705 9.642c0.175-0.367 0.282-0.772 0.282-1.205v-16.875c0-0.433-0.106-0.838-0.282-1.205z"></path>
<path d="M29.188 4.75h-26.375c-0.433 0-0.838 0.106-1.205 0.282l12.404 12.341c1.097 1.097 2.88 1.097 3.977 0l12.404-12.341c-0.367-0.175-0.772-0.282-1.205-0.282z"></path>
<path d="M0.282 6.358c-0.175 0.367-0.282 0.772-0.282 1.205v16.875c0 0.433 0.106 0.838 0.282 1.205l9.705-9.642-9.705-9.642z"></path>
<path d="M20.688 17.326l-1.373 1.373c-1.827 1.827-4.801 1.827-6.628 0l-1.373-1.373-9.705 9.642c0.367 0.175 0.772 0.282 1.205 0.282h26.375c0.433 0 0.838-0.106 1.205-0.282l-9.705-9.642z"></path>
</symbol>
<symbol id="icon-pin" viewBox="0 0 32 32">
<path d="M25.474 5.48c-1.942-3.352-5.392-5.399-9.227-5.477-0.164-0.003-0.329-0.003-0.492 0-3.836 0.078-7.285 2.126-9.227 5.477-1.985 3.426-2.039 7.541-0.145 11.008l7.935 14.524c0.004 0.006 0.007 0.013 0.011 0.019 0.349 0.607 0.975 0.969 1.673 0.969s1.324-0.362 1.673-0.969c0.004-0.006 0.007-0.013 0.011-0.019l7.935-14.524c1.894-3.467 1.84-7.582-0.145-11.008zM16 14.5c-2.481 0-4.5-2.019-4.5-4.5s2.019-4.5 4.5-4.5 4.5 2.019 4.5 4.5-2.019 4.5-4.5 4.5z"></path>
</symbol>
</defs>
</svg>
